<svg width="90" height="90" viewBox="0 0 90 90" fill="none" xmlns="http://www.w3.org/2000/svg">
<g filter="url(#filter0_d_14_226)">
<rect x="30" y="30" width="30" height="30" rx="5" fill="#30C63A"/>
</g>
<path d="M50 37.5H40C39.337 37.5 38.7011 37.7634 38.2322 38.2322C37.7634 38.7011 37.5 39.337 37.5 40V50C37.5 50.663 37.7634 51.2989 38.2322 51.7678C38.7011 52.2366 39.337 52.5 40 52.5H50C50.663 52.5 51.2989 52.2366 51.7678 51.7678C52.2366 51.2989 52.5 50.663 52.5 50V40C52.5 39.337 52.2366 38.7011 51.7678 38.2322C51.2989 37.7634 50.663 37.5 50 37.5ZM48.5833 43.0083L44.775 48.0083C44.6974 48.1092 44.5977 48.1909 44.4836 48.2472C44.3694 48.3036 44.2439 48.333 44.1167 48.3333C43.9901 48.334 43.865 48.3059 43.751 48.251C43.6369 48.1961 43.5368 48.116 43.4583 48.0167L41.425 45.425C41.3577 45.3385 41.3081 45.2397 41.279 45.1341C41.2499 45.0284 41.2419 44.9181 41.2554 44.8094C41.269 44.7007 41.3038 44.5957 41.3579 44.5004C41.412 44.4051 41.4844 44.3215 41.5708 44.2542C41.7454 44.1182 41.9669 44.0572 42.1865 44.0846C42.2952 44.0981 42.4002 44.133 42.4954 44.1871C42.5907 44.2412 42.6744 44.3135 42.7417 44.4L44.1 46.1333L47.25 41.9667C47.3168 41.8791 47.4001 41.8056 47.4953 41.7502C47.5905 41.6949 47.6956 41.6589 47.8047 41.6441C47.9138 41.6294 48.0248 41.6364 48.1312 41.6645C48.2376 41.6927 48.3375 41.7416 48.425 41.8083C48.5125 41.8751 48.5861 41.9584 48.6414 42.0536C48.6968 42.1488 48.7328 42.2539 48.7475 42.363C48.7622 42.4721 48.7553 42.5831 48.7271 42.6895C48.6989 42.7959 48.6501 42.8958 48.5833 42.9833V43.0083Z" fill="white" fill-opacity="0.7"/>
<defs>
<filter id="filter0_d_14_226" x="0" y="0" width="90" height="90" filterUnits="userSpaceOnUse" color-interpolation-filters="sRGB">
<feFlood flood-opacity="0" result="BackgroundImageFix"/>
<feColorMatrix in="SourceAlpha" type="matrix" values="0 0 0 0 0 0 0 0 0 0 0 0 0 0 0 0 0 0 127 0" result="hardAlpha"/>
<feOffset/>
<feGaussianBlur stdDeviation="15"/>
<feComposite in2="hardAlpha" operator="out"/>
<feColorMatrix type="matrix" values="0 0 0 0 0 0 0 0 0 0 0 0 0 0 0 0 0 0 0.1 0"/>
<feBlend mode="normal" in2="BackgroundImageFix" result="effect1_dropShadow_14_226"/>
<feBlend mode="normal" in="SourceGraphic" in2="effect1_dropShadow_14_226" result="shape"/>
</filter>
</defs>
</svg>
