<svg width="30" height="30" viewBox="0 0 30 30" fill="none" xmlns="http://www.w3.org/2000/svg">
<path d="M0 6.84211C0 3.06332 3.06332 0 6.84211 0H23.1579C26.9367 0 30 3.06332 30 6.84211V23.1579C30 26.9367 26.9367 30 23.1579 30H6.84211C3.06332 30 0 26.9367 0 23.1579V6.84211Z" fill="#9B2279"/>
<path fill-rule="evenodd" clip-rule="evenodd" d="M11.1404 5.32316C12.2068 5.27407 12.5468 5.26316 15.2632 5.26316C17.9795 5.26316 18.3195 5.27498 19.385 5.32316C20.4504 5.37134 21.1777 5.54134 21.8141 5.7877C22.4804 6.03952 23.085 6.43316 23.585 6.94225C24.0941 7.44134 24.4868 8.04498 24.7377 8.71225C24.985 9.34861 25.1541 10.0759 25.2032 11.1395C25.2523 12.2077 25.2632 12.5477 25.2632 15.2632C25.2632 17.9795 25.2513 18.3195 25.2032 19.3859C25.155 20.4495 24.985 21.1768 24.7377 21.8132C24.4868 22.4805 24.0934 23.0852 23.585 23.585C23.085 24.0941 22.4804 24.4868 21.8141 24.7377C21.1777 24.985 20.4504 25.1541 19.3868 25.2032C18.3195 25.2523 17.9795 25.2632 15.2632 25.2632C12.5468 25.2632 12.2068 25.2513 11.1404 25.2032C10.0768 25.155 9.34952 24.985 8.71316 24.7377C8.04581 24.4868 7.44118 24.0934 6.94134 23.585C6.43259 23.0856 6.0389 22.4812 5.7877 21.8141C5.54134 21.1777 5.37225 20.4504 5.32316 19.3868C5.27407 18.3186 5.26316 17.9786 5.26316 15.2632C5.26316 12.5468 5.27498 12.2068 5.32316 11.1413C5.37134 10.0759 5.54134 9.34861 5.7877 8.71225C6.03927 8.04505 6.43327 7.44072 6.94225 6.94134C7.44138 6.4327 8.04541 6.03902 8.71225 5.7877C9.34861 5.54134 10.0759 5.37225 11.1395 5.32316H11.1404ZM19.3041 7.12316C18.2495 7.07498 17.9332 7.06498 15.2632 7.06498C12.5932 7.06498 12.2768 7.07498 11.2222 7.12316C10.2468 7.1677 9.7177 7.33043 9.36498 7.4677C8.89861 7.64952 8.56498 7.86498 8.21498 8.21498C7.8832 8.53775 7.62787 8.93069 7.4677 9.36498C7.33043 9.7177 7.1677 10.2468 7.12316 11.2222C7.07498 12.2768 7.06498 12.5932 7.06498 15.2632C7.06498 17.9332 7.07498 18.2495 7.12316 19.3041C7.1677 20.2795 7.33043 20.8086 7.4677 21.1613C7.6277 21.595 7.88316 21.9886 8.21498 22.3113C8.5377 22.6432 8.93134 22.8986 9.36498 23.0586C9.7177 23.1959 10.2468 23.3586 11.2222 23.4032C12.2768 23.4513 12.5922 23.4613 15.2632 23.4613C17.9341 23.4613 18.2495 23.4513 19.3041 23.4032C20.2795 23.3586 20.8086 23.1959 21.1613 23.0586C21.6277 22.8768 21.9613 22.6613 22.3113 22.3113C22.6432 21.9886 22.8986 21.595 23.0586 21.1613C23.1959 20.8086 23.3586 20.2795 23.4032 19.3041C23.4513 18.2495 23.4613 17.9332 23.4613 15.2632C23.4613 12.5932 23.4513 12.2768 23.4032 11.2222C23.3586 10.2468 23.1959 9.7177 23.0586 9.36498C22.8768 8.89861 22.6613 8.56498 22.3113 8.21498C21.9885 7.88322 21.5956 7.6279 21.1613 7.4677C20.8086 7.33043 20.2795 7.1677 19.3041 7.12316ZM13.9859 18.3459C14.6992 18.6428 15.4935 18.6829 16.2331 18.4593C16.9727 18.2356 17.6117 17.7622 18.041 17.1197C18.4703 16.4773 18.6632 15.7058 18.5868 14.9369C18.5105 14.168 18.1695 13.4495 17.6222 12.9041C17.2734 12.5554 16.8515 12.2884 16.3871 12.1224C15.9227 11.9563 15.4272 11.8953 14.9363 11.9437C14.4455 11.9921 13.9715 12.1488 13.5484 12.4024C13.1254 12.656 12.7638 13.0002 12.4898 13.4103C12.2158 13.8204 12.0361 14.2861 11.9636 14.774C11.8912 15.2619 11.9278 15.7598 12.0709 16.2318C12.214 16.7038 12.46 17.1383 12.7911 17.5038C13.1222 17.8694 13.5303 18.157 13.9859 18.3459ZM11.6286 11.6286C12.1059 11.1513 12.6725 10.7727 13.2962 10.5144C13.9198 10.2561 14.5882 10.1231 15.2632 10.1231C15.9382 10.1231 16.6065 10.2561 17.2302 10.5144C17.8538 10.7727 18.4204 11.1513 18.8977 11.6286C19.375 12.1059 19.7536 12.6725 20.0119 13.2962C20.2702 13.9198 20.4032 14.5882 20.4032 15.2632C20.4032 15.9382 20.2702 16.6065 20.0119 17.2302C19.7536 17.8538 19.375 18.4204 18.8977 18.8977C17.9338 19.8616 16.6264 20.4032 15.2632 20.4032C13.8999 20.4032 12.5926 19.8616 11.6286 18.8977C10.6647 17.9338 10.1231 16.6264 10.1231 15.2632C10.1231 13.8999 10.6647 12.5926 11.6286 11.6286ZM21.5432 10.8886C21.6614 10.777 21.7561 10.6429 21.8216 10.494C21.8871 10.3452 21.9221 10.1848 21.9244 10.0222C21.9268 9.8596 21.8965 9.6982 21.8354 9.54753C21.7743 9.39686 21.6836 9.25999 21.5686 9.14501C21.4536 9.03004 21.3167 8.9393 21.1661 8.87817C21.0154 8.81705 20.854 8.78677 20.6914 8.78914C20.5288 8.79151 20.3684 8.82648 20.2195 8.89197C20.0707 8.95747 19.9366 9.05215 19.825 9.17043C19.608 9.40046 19.4892 9.706 19.4938 10.0222C19.4984 10.3384 19.6261 10.6403 19.8497 10.8639C20.0733 11.0875 20.3752 11.2152 20.6914 11.2198C21.0076 11.2244 21.3131 11.1056 21.5432 10.8886Z" fill="white"/>
</svg>
