<svg width="30" height="30" viewBox="0 0 30 30" fill="none" xmlns="http://www.w3.org/2000/svg">
<path d="M0 6.84211C0 3.06332 3.06332 0 6.84211 0H23.1579C26.9367 0 30 3.06332 30 6.84211V23.1579C30 26.9367 26.9367 30 23.1579 30H6.84211C3.06332 30 0 26.9367 0 23.1579V6.84211Z" fill="#BF0000"/>
<path d="M21.5436 17.2593C21.4569 16.6569 20.9918 16.1873 20.393 16.0473C18.0655 15.5017 17.482 14.1614 17.3836 12.6748C16.9708 12.598 16.2366 12.5149 14.9902 12.5149C13.7438 12.5149 13.0095 12.598 12.5968 12.6748C12.4983 14.1614 11.9149 15.5017 9.58738 16.0473C8.98858 16.1882 8.52344 16.6569 8.43674 17.2593L7.98786 20.3681C7.8298 21.4627 8.63363 22.4499 9.75176 22.4499H20.2286C21.3458 22.4499 22.1505 21.4627 21.9925 20.3681L21.5436 17.2593ZM14.9902 20.1847C13.7302 20.1847 12.7088 19.1732 12.7088 17.9268C12.7088 16.6804 13.7302 15.6688 14.9902 15.6688C16.2501 15.6688 17.2716 16.6804 17.2716 17.9268C17.2716 19.1732 16.2492 20.1847 14.9902 20.1847ZM23.9768 11.6118C23.9551 10.257 20.5068 7.99998 14.9902 7.99907C9.47268 7.99998 6.02436 10.257 6.00359 11.6118C5.98281 12.9665 6.02255 14.7295 8.29313 14.436C10.9494 14.0919 10.7859 13.1643 10.7859 11.8385C10.7859 10.9136 12.9463 10.6905 14.9902 10.6905C17.0341 10.6905 19.1935 10.9136 19.1944 11.8385C19.1944 13.1643 19.031 14.0919 21.6872 14.436C23.9569 14.7295 23.9975 12.9665 23.9768 11.6118Z" fill="#EFEDE8"/>
</svg>
