<svg width="30" height="30" viewBox="0 0 30 30" fill="none" xmlns="http://www.w3.org/2000/svg">
<path d="M0 6.84211C0 3.06332 3.06332 0 6.84211 0H23.1579C26.9367 0 30 3.06332 30 6.84211V23.1579C30 26.9367 26.9367 30 23.1579 30H6.84211C3.06332 30 0 26.9367 0 23.1579V6.84211Z" fill="#0088CC"/>
<path d="M22.7644 8.09716L6.83881 14.1572C5.75196 14.588 5.75824 15.1863 6.63941 15.4531L10.7281 16.7117L20.1883 10.8218C20.6356 10.5533 21.0443 10.6978 20.7084 10.992L13.0438 17.8179H13.042L13.0438 17.8188L12.7617 21.9776C13.1749 21.9776 13.3573 21.7906 13.589 21.5699L15.575 19.6642L19.706 22.6752C20.4677 23.0891 21.0147 22.8764 21.2042 21.9794L23.916 9.36821C24.1935 8.27001 23.4911 7.77276 22.7644 8.09716Z" fill="#EFEDE8"/>
</svg>
