<svg width="30" height="30" viewBox="0 0 30 30" fill="none" xmlns="http://www.w3.org/2000/svg">
<path d="M0 6.84211C0 3.06332 3.06332 0 6.84211 0H23.1579C26.9367 0 30 3.06332 30 6.84211V23.1579C30 26.9367 26.9367 30 23.1579 30H6.84211C3.06332 30 0 26.9367 0 23.1579V6.84211Z" fill="#25D366"/>
<path fill-rule="evenodd" clip-rule="evenodd" d="M19.1078 16.825C18.8835 16.7129 17.7838 16.1724 17.5791 16.0971C17.3743 16.0226 17.2253 15.9857 17.0755 16.21C16.9265 16.4328 16.4982 16.9372 16.368 17.0862C16.237 17.236 16.1068 17.2541 15.8832 17.1427C15.6597 17.0297 14.9386 16.7941 14.0842 16.0324C13.4196 15.4393 12.9702 14.7069 12.84 14.4826C12.7098 14.259 12.8257 14.1378 12.9378 14.0264C13.0387 13.9263 13.1614 13.7652 13.2736 13.635C13.3857 13.504 13.4226 13.4107 13.4971 13.2609C13.5724 13.1119 13.5347 12.9816 13.4783 12.8695C13.4226 12.7573 12.9755 11.6561 12.7888 11.2083C12.6074 10.7724 12.423 10.8319 12.286 10.8244C12.155 10.8183 12.006 10.8168 11.8569 10.8168C11.7079 10.8168 11.4655 10.8725 11.2608 11.0969C11.0553 11.3204 10.478 11.8616 10.478 12.9628C10.478 14.0633 11.2789 15.1269 11.391 15.2767C11.5032 15.4257 12.968 17.6854 15.2118 18.6541C15.7462 18.8844 16.1625 19.0222 16.4869 19.1246C17.0228 19.2954 17.5106 19.2713 17.896 19.2134C18.325 19.1494 19.2192 18.6722 19.4059 18.1498C19.5918 17.6274 19.5918 17.1795 19.5361 17.0862C19.4804 16.9929 19.3314 16.9372 19.1071 16.825H19.1078ZM15.0266 22.3974H15.0236C13.6909 22.3976 12.3826 22.0393 11.236 21.3601L10.965 21.199L8.14832 21.9382L8.90028 19.1923L8.72339 18.9108C7.97831 17.7248 7.58401 16.3521 7.58604 14.9515C7.58755 10.8492 10.9251 7.51167 15.0296 7.51167C17.0168 7.51167 18.885 8.28697 20.2896 9.69304C20.9824 10.383 21.5315 11.2034 21.9051 12.1069C22.2788 13.0104 22.4696 13.9791 22.4665 14.9568C22.465 19.0591 19.1274 22.3974 15.0266 22.3974ZM21.3585 8.62493C20.5291 7.79012 19.5423 7.12819 18.4553 6.67751C17.3683 6.22683 16.2026 5.99637 15.0259 5.99947C10.0926 5.99947 6.0761 10.0152 6.07459 14.9507C6.07231 16.5215 6.48435 18.065 7.26915 19.4256L5.99932 24.0646L10.7444 22.8196C12.0571 23.5348 13.528 23.9095 15.0229 23.9096H15.0266C19.9599 23.9096 23.9764 19.8938 23.9779 14.9575C23.9815 13.7812 23.7519 12.6159 23.3023 11.5289C22.8527 10.442 22.192 9.45493 21.3585 8.62493Z" fill="#EFEDE8"/>
</svg>
