<svg width="30" height="30" viewBox="0 0 30 30" fill="none" xmlns="http://www.w3.org/2000/svg">
<path d="M0 6.84211C0 3.06332 3.06332 0 6.84211 0H23.1579C26.9367 0 30 3.06332 30 6.84211V23.1579C30 26.9367 26.9367 30 23.1579 30H6.84211C3.06332 30 0 26.9367 0 23.1579V6.84211Z" fill="#665CAC"/>
<path d="M14.5171 6.00217C12.997 6.02038 9.72875 6.26828 7.90077 7.93251C6.54104 9.26953 6.06628 11.2463 6.01064 13.6906C5.96446 16.1262 5.90882 20.7 10.3515 21.9454V23.8422C10.3515 23.8422 10.3237 24.6012 10.8292 24.7569C11.452 24.9525 11.8065 24.3686 12.3985 23.7412L13.5025 22.5023C16.5422 22.7531 18.8704 22.1751 19.1386 22.0893C19.7554 21.8937 23.2296 21.4531 23.7973 16.8787C24.3798 12.1545 23.5138 9.17789 21.9504 7.83147H21.9409C21.4691 7.40028 19.5731 6.02919 15.337 6.01392C15.337 6.01392 15.0227 5.99277 14.5171 6.00158V6.00217ZM14.5692 7.33038C15.0008 7.32744 15.263 7.34565 15.263 7.34565C18.8485 7.35505 20.5599 8.42596 20.9636 8.78665C22.2801 9.90631 22.9585 12.5898 22.4618 16.5338C21.9901 20.3581 19.1723 20.6001 18.6508 20.7652C18.4288 20.8357 16.3783 21.3374 13.7949 21.1723C13.7949 21.1723 11.8711 23.4762 11.2696 24.0696C11.1743 24.1735 11.063 24.2041 10.992 24.1888C10.8902 24.1641 10.8594 24.039 10.8653 23.8675L10.8837 20.7194C7.11583 19.6855 7.33782 15.7843 7.37807 13.7464C7.42424 11.7086 7.80961 10.0414 8.95683 8.91236C10.5013 7.52658 13.2764 7.33978 14.568 7.33038H14.5692ZM14.8534 9.36763C14.8224 9.36732 14.7916 9.3731 14.7628 9.38465C14.7341 9.39619 14.7079 9.41327 14.6859 9.43489C14.6638 9.45652 14.6463 9.48226 14.6343 9.51064C14.6223 9.53903 14.6161 9.56948 14.616 9.60026C14.616 9.73184 14.7237 9.83582 14.8534 9.83582C15.4403 9.82474 16.0236 9.92909 16.5697 10.1428C17.1158 10.3566 17.6139 10.6755 18.0352 11.0812C18.8953 11.9101 19.3144 13.0239 19.3304 14.4801C19.3304 14.6088 19.4351 14.7157 19.5677 14.7157V14.7063C19.6302 14.7065 19.6903 14.6821 19.7347 14.6385C19.7792 14.5949 19.8045 14.5357 19.8051 14.4737C19.8339 13.7882 19.7219 13.1041 19.4759 12.463C19.2299 11.8218 18.8552 11.237 18.3744 10.744C17.4373 9.83523 16.2498 9.36704 14.8534 9.36704V9.36763ZM11.7331 9.90631C11.5656 9.88202 11.3947 9.9154 11.2489 10.0009H11.2365C10.898 10.1978 10.5931 10.4466 10.3331 10.7381C10.1171 10.986 9.99987 11.2369 9.96909 11.4783C9.95074 11.6222 9.96317 11.7662 10.0064 11.9036L10.0218 11.913C10.2651 12.6226 10.583 13.3053 10.9713 13.9479C11.4715 14.8508 12.0871 15.6858 12.8028 16.4322L12.8241 16.4628L12.8579 16.4874L12.8792 16.5121L12.904 16.5333C13.6589 17.2456 14.5024 17.8593 15.414 18.3596C16.4558 18.9224 17.088 19.1885 17.4675 19.2989V19.3048C17.5788 19.3383 17.68 19.3536 17.7818 19.3536C18.1052 19.3301 18.4113 19.1998 18.6514 18.9835C18.9438 18.7254 19.1918 18.4216 19.3854 18.0841V18.0782C19.5672 17.7387 19.5056 17.4174 19.2433 17.2C18.7182 16.7444 18.1503 16.3398 17.5474 15.9916C17.1437 15.7743 16.7334 15.9059 16.5671 16.1262L16.2125 16.5697C16.0308 16.79 15.7005 16.7594 15.7005 16.7594L15.691 16.7653C13.2278 16.1408 12.5708 13.6659 12.5708 13.6659C12.5708 13.6659 12.54 13.3293 12.7679 13.1578L13.2119 12.803C13.4244 12.6315 13.5724 12.225 13.3445 11.8237C12.996 11.2246 12.5892 10.6609 12.1297 10.1407C12.0293 10.0181 11.8884 9.93462 11.7319 9.90514L11.7331 9.90631ZM15.263 10.6042C14.9487 10.6042 14.9487 11.0753 15.266 11.0753C15.6568 11.0816 16.0426 11.1643 16.4013 11.3186C16.7599 11.4729 17.0844 11.6959 17.3562 11.9747C17.6041 12.2461 17.7946 12.5641 17.9164 12.9099C18.0383 13.2557 18.0889 13.6223 18.0653 13.9879C18.0664 14.0497 18.0919 14.1087 18.1362 14.1522C18.1806 14.1957 18.2404 14.2202 18.3027 14.2205L18.3122 14.2328C18.375 14.2324 18.4351 14.2074 18.4795 14.1633C18.5239 14.1192 18.5491 14.0596 18.5496 13.9973C18.5709 13.0638 18.2785 12.2808 17.7048 11.6534C17.1283 11.026 16.3238 10.6741 15.2967 10.6042H15.263ZM15.6519 11.8707C15.3281 11.8613 15.3157 12.3419 15.6365 12.3513C16.4167 12.3912 16.7956 12.7824 16.8453 13.5872C16.8464 13.6483 16.8715 13.7066 16.9153 13.7495C16.9592 13.7924 17.0182 13.8166 17.0797 13.8169H17.0892C17.1209 13.8156 17.1519 13.808 17.1806 13.7946C17.2093 13.7812 17.2349 13.7623 17.2562 13.7389C17.2774 13.7156 17.2937 13.6883 17.3042 13.6586C17.3146 13.6289 17.319 13.5975 17.3171 13.5661C17.2615 12.5169 16.6849 11.9259 15.6614 11.8713H15.6519V11.8707Z" fill="#EFEDE8"/>
</svg>
