<svg width="30" height="30" viewBox="0 0 30 30" fill="none" xmlns="http://www.w3.org/2000/svg">
<path d="M0 6.84211C0 3.06332 3.06332 0 6.84211 0H23.1579C26.9367 0 30 3.06332 30 6.84211V23.1579C30 26.9367 26.9367 30 23.1579 30H6.84211C3.06332 30 0 26.9367 0 23.1579V6.84211Z" fill="#0077FF"/>
<path d="M16.2789 21.4474C9.52276 21.4474 5.42376 16.7512 5.26316 8.94737H8.68498C8.79165 14.6798 11.3949 17.109 13.3904 17.6085V8.94737H16.6696V13.8945C18.5945 13.6808 20.6092 11.4306 21.2864 8.94737H24.5141C23.9975 12.0009 21.8042 14.2512 20.2545 15.1794C21.8054 15.9298 24.3007 17.8943 25.2632 21.4474H21.7155C20.9664 19.0722 19.1314 17.2327 16.6708 16.9829V21.4474H16.2789Z" fill="white"/>
</svg>
