<svg width="237" height="38" viewBox="0 0 237 38" fill="none" xmlns="http://www.w3.org/2000/svg">
<path d="M30 14.5C30 22.5081 23.2843 29 15 29C6.71573 29 0 22.5081 0 14.5C0 6.49187 6.71573 0 15 0C23.2843 0 30 6.49187 30 14.5Z" fill="#30C63A"/>
<path d="M47 14.5C47 22.5081 40.2843 29 32 29C23.7157 29 17 22.5081 17 14.5C17 6.49187 23.7157 0 32 0C40.2843 0 47 6.49187 47 14.5Z" fill="#A9F4AC"/>
<path d="M74.5342 29H60.1445V4.01465H74.5342V8.35547H65.4424V13.8413H73.9019V18.1821H65.4424V24.625H74.5342V29Z" fill="#212121"/>
<path d="M90.2056 9.53467C92.245 9.53467 93.8856 10.0929 95.1274 11.2095C96.3693 12.3146 96.9902 14.092 96.9902 16.5415V29H91.7778V17.8403C91.7778 16.4731 91.5272 15.4421 91.0259 14.7471C90.536 14.0521 89.7612 13.7046 88.7017 13.7046C87.1066 13.7046 86.0186 14.2458 85.4375 15.3281C84.8564 16.4105 84.5659 17.9714 84.5659 20.0107V29H79.3535V9.89355H83.3354L84.0361 12.3374H84.3267C84.7368 11.6766 85.2438 11.1411 85.8477 10.731C86.4629 10.3208 87.1408 10.0189 87.8813 9.8252C88.6333 9.63151 89.408 9.53467 90.2056 9.53467Z" fill="#212121"/>
<path d="M110.406 25.189C110.975 25.189 111.528 25.132 112.063 25.0181C112.61 24.9041 113.152 24.7617 113.687 24.5908V28.4702C113.129 28.7209 112.434 28.9259 111.602 29.0854C110.782 29.2563 109.882 29.3418 108.902 29.3418C107.763 29.3418 106.737 29.1595 105.826 28.7949C104.926 28.4189 104.214 27.7752 103.689 26.8638C103.177 25.9409 102.92 24.6592 102.92 23.0186V13.8071H100.425V11.6025L103.296 9.85938L104.8 5.82617H108.133V9.89355H113.482V13.8071H108.133V23.0186C108.133 23.7477 108.338 24.2946 108.748 24.6592C109.17 25.0124 109.722 25.189 110.406 25.189Z" fill="#212121"/>
<path d="M125.445 9.53467C127.211 9.53467 128.732 9.87646 130.008 10.5601C131.284 11.2323 132.269 12.2121 132.964 13.4995C133.659 14.7869 134.007 16.3592 134.007 18.2163V20.7456H121.685C121.742 22.2153 122.181 23.3717 123.001 24.2148C123.833 25.0465 124.983 25.4624 126.453 25.4624C127.672 25.4624 128.789 25.3371 129.803 25.0864C130.817 24.8358 131.859 24.4598 132.93 23.9585V27.9917C131.985 28.4588 130.993 28.8006 129.957 29.0171C128.931 29.2336 127.684 29.3418 126.214 29.3418C124.3 29.3418 122.602 28.9886 121.121 28.2822C119.651 27.5758 118.495 26.4992 117.652 25.0522C116.82 23.6053 116.404 21.7824 116.404 19.5835C116.404 17.3504 116.78 15.4933 117.532 14.0122C118.296 12.5197 119.355 11.4032 120.711 10.6626C122.067 9.91064 123.645 9.53467 125.445 9.53467ZM125.479 13.2432C124.465 13.2432 123.622 13.5679 122.95 14.2173C122.289 14.8667 121.907 15.8864 121.805 17.2764H129.119C129.108 16.5016 128.965 15.8123 128.692 15.2085C128.43 14.6047 128.031 14.1261 127.496 13.7729C126.972 13.4198 126.299 13.2432 125.479 13.2432Z" fill="#212121"/>
<path d="M148.909 9.53467C149.171 9.53467 149.473 9.55176 149.815 9.58594C150.168 9.60872 150.453 9.6429 150.669 9.68848L150.276 14.5762C150.105 14.5192 149.861 14.4793 149.542 14.4565C149.234 14.4224 148.966 14.4053 148.738 14.4053C148.066 14.4053 147.411 14.4907 146.773 14.6616C146.146 14.8325 145.582 15.1117 145.081 15.499C144.58 15.875 144.181 16.3763 143.885 17.0029C143.6 17.6182 143.458 18.3758 143.458 19.2759V29H138.245V9.89355H142.193L142.962 13.1064H143.218C143.594 12.457 144.061 11.8646 144.62 11.3291C145.189 10.7822 145.833 10.3493 146.551 10.0303C147.28 9.69987 148.066 9.53467 148.909 9.53467Z" fill="#212121"/>
<path d="M164.769 9.53467C166.922 9.53467 168.659 10.3721 169.981 12.0469C171.314 13.7217 171.98 16.1769 171.98 19.4126C171.98 21.5773 171.667 23.4002 171.041 24.8813C170.414 26.3511 169.548 27.4619 168.443 28.2139C167.338 28.9658 166.067 29.3418 164.632 29.3418C163.709 29.3418 162.917 29.2279 162.256 29C161.596 28.7607 161.032 28.4588 160.564 28.0942C160.097 27.7183 159.693 27.3195 159.351 26.8979H159.078C159.169 27.3537 159.237 27.8208 159.283 28.2993C159.328 28.7778 159.351 29.245 159.351 29.7007V37.4082H154.139V9.89355H158.377L159.112 12.3716H159.351C159.693 11.8589 160.109 11.3861 160.599 10.9531C161.089 10.5202 161.675 10.1784 162.359 9.92773C163.054 9.66569 163.857 9.53467 164.769 9.53467ZM163.094 13.7046C162.182 13.7046 161.459 13.8926 160.923 14.2686C160.388 14.6445 159.995 15.2085 159.744 15.9604C159.505 16.7124 159.374 17.6637 159.351 18.8145V19.3784C159.351 20.6089 159.465 21.6514 159.693 22.5059C159.932 23.3604 160.325 24.0098 160.872 24.4541C161.43 24.8984 162.194 25.1206 163.162 25.1206C163.96 25.1206 164.615 24.8984 165.127 24.4541C165.64 24.0098 166.022 23.3604 166.272 22.5059C166.535 21.64 166.666 20.5861 166.666 19.3442C166.666 17.4757 166.375 16.0687 165.794 15.123C165.213 14.1774 164.313 13.7046 163.094 13.7046Z" fill="#212121"/>
<path d="M186.951 9.53467C187.213 9.53467 187.515 9.55176 187.857 9.58594C188.21 9.60872 188.495 9.6429 188.711 9.68848L188.318 14.5762C188.147 14.5192 187.903 14.4793 187.583 14.4565C187.276 14.4224 187.008 14.4053 186.78 14.4053C186.108 14.4053 185.453 14.4907 184.815 14.6616C184.188 14.8325 183.624 15.1117 183.123 15.499C182.622 15.875 182.223 16.3763 181.927 17.0029C181.642 17.6182 181.5 18.3758 181.5 19.2759V29H176.287V9.89355H180.235L181.004 13.1064H181.26C181.636 12.457 182.103 11.8646 182.662 11.3291C183.231 10.7822 183.875 10.3493 184.593 10.0303C185.322 9.69987 186.108 9.53467 186.951 9.53467Z" fill="#212121"/>
<path d="M197.393 9.89355V29H192.181V9.89355H197.393ZM194.795 2.4082C195.57 2.4082 196.237 2.59049 196.795 2.95508C197.353 3.30827 197.632 3.97477 197.632 4.95459C197.632 5.92301 197.353 6.59521 196.795 6.97119C196.237 7.33577 195.57 7.51807 194.795 7.51807C194.009 7.51807 193.337 7.33577 192.779 6.97119C192.232 6.59521 191.958 5.92301 191.958 4.95459C191.958 3.97477 192.232 3.30827 192.779 2.95508C193.337 2.59049 194.009 2.4082 194.795 2.4082Z" fill="#212121"/>
<path d="M216.209 23.3262C216.209 24.625 215.901 25.7244 215.286 26.6245C214.682 27.5132 213.777 28.1911 212.569 28.6582C211.361 29.1139 209.857 29.3418 208.057 29.3418C206.724 29.3418 205.579 29.2563 204.622 29.0854C203.676 28.9146 202.719 28.6297 201.751 28.231V23.9243C202.788 24.3914 203.899 24.7788 205.083 25.0864C206.28 25.3827 207.328 25.5308 208.228 25.5308C209.242 25.5308 209.965 25.3827 210.398 25.0864C210.843 24.7788 211.065 24.38 211.065 23.8901C211.065 23.5711 210.974 23.2863 210.792 23.0356C210.621 22.7736 210.245 22.4831 209.664 22.1641C209.083 21.8337 208.171 21.4064 206.929 20.8823C205.733 20.381 204.747 19.874 203.973 19.3613C203.209 18.8486 202.64 18.2448 202.264 17.5498C201.899 16.8434 201.717 15.9491 201.717 14.8667C201.717 13.1007 202.4 11.7734 203.768 10.8848C205.146 9.9847 206.986 9.53467 209.288 9.53467C210.472 9.53467 211.6 9.6543 212.671 9.89355C213.754 10.1328 214.865 10.5145 216.004 11.0386L214.432 14.7983C213.486 14.3882 212.592 14.0521 211.749 13.79C210.917 13.528 210.068 13.397 209.202 13.397C208.439 13.397 207.863 13.4995 207.476 13.7046C207.089 13.9097 206.895 14.223 206.895 14.6445C206.895 14.9521 206.992 15.2256 207.186 15.4648C207.391 15.7041 207.778 15.9718 208.348 16.2681C208.929 16.5529 209.778 16.9232 210.894 17.3789C211.976 17.8232 212.916 18.2904 213.714 18.7803C214.511 19.2588 215.127 19.8569 215.56 20.5747C215.993 21.2811 216.209 22.1982 216.209 23.3262Z" fill="#212121"/>
<path d="M228.155 9.53467C229.921 9.53467 231.442 9.87646 232.718 10.5601C233.994 11.2323 234.979 12.2121 235.674 13.4995C236.369 14.7869 236.717 16.3592 236.717 18.2163V20.7456H224.395C224.452 22.2153 224.891 23.3717 225.711 24.2148C226.543 25.0465 227.693 25.4624 229.163 25.4624C230.382 25.4624 231.499 25.3371 232.513 25.0864C233.527 24.8358 234.569 24.4598 235.64 23.9585V27.9917C234.695 28.4588 233.703 28.8006 232.667 29.0171C231.641 29.2336 230.394 29.3418 228.924 29.3418C227.01 29.3418 225.312 28.9886 223.831 28.2822C222.361 27.5758 221.205 26.4992 220.362 25.0522C219.53 23.6053 219.114 21.7824 219.114 19.5835C219.114 17.3504 219.49 15.4933 220.242 14.0122C221.006 12.5197 222.065 11.4032 223.421 10.6626C224.777 9.91064 226.355 9.53467 228.155 9.53467ZM228.189 13.2432C227.175 13.2432 226.332 13.5679 225.66 14.2173C224.999 14.8667 224.617 15.8864 224.515 17.2764H231.829C231.818 16.5016 231.675 15.8123 231.402 15.2085C231.14 14.6047 230.741 14.1261 230.206 13.7729C229.681 13.4198 229.009 13.2432 228.189 13.2432Z" fill="#212121"/>
</svg>
